<mxfile host="app.diagrams.net" modified="2022-09-26T14:04:58.689Z" agent="5.0 (Macintosh; Intel Mac OS X 10_15_7) AppleWebKit/537.36 (KHTML, like Gecko) Chrome/105.0.0.0 Safari/537.36" etag="gDz6LW3pkTyNBGZokQbw" version="20.3.6" type="github">
  <diagram id="UVyEzjZeW7t1hH5NRSwj" name="Page-1">
    <mxGraphModel dx="1018" dy="659" grid="1" gridSize="10" guides="1" tooltips="1" connect="1" arrows="1" fold="1" page="1" pageScale="1" pageWidth="850" pageHeight="1100" math="0" shadow="0">
      <root>
        <mxCell id="0" />
        <mxCell id="1" parent="0" />
        <mxCell id="6odyf6oBOMub9okKzpVn-1" value="&lt;font style=&quot;font-size: 18px;&quot;&gt;Build a Forum&lt;/font&gt;" style="rounded=1;whiteSpace=wrap;html=1;fillColor=#d5e8d4;strokeColor=#82b366;" vertex="1" parent="1">
          <mxGeometry x="30" y="330" width="150" height="60" as="geometry" />
        </mxCell>
        <mxCell id="6odyf6oBOMub9okKzpVn-10" value="&lt;span style=&quot;font-size: 18px;&quot;&gt;Publish our own research&lt;/span&gt;" style="rounded=1;whiteSpace=wrap;html=1;fillColor=#f5f5f5;fontColor=#333333;strokeColor=#666666;" vertex="1" parent="1">
          <mxGeometry x="290" y="280" width="220" height="60" as="geometry" />
        </mxCell>
        <mxCell id="6odyf6oBOMub9okKzpVn-12" value="&lt;span style=&quot;font-size: 18px;&quot;&gt;Engage community in discussions&lt;/span&gt;" style="rounded=1;whiteSpace=wrap;html=1;fillColor=#f5f5f5;fontColor=#333333;strokeColor=#666666;" vertex="1" parent="1">
          <mxGeometry x="290" y="390" width="220" height="60" as="geometry" />
        </mxCell>
        <mxCell id="6odyf6oBOMub9okKzpVn-13" value="" style="endArrow=classic;html=1;rounded=0;strokeWidth=2;fontSize=18;exitX=1;exitY=0.5;exitDx=0;exitDy=0;entryX=0;entryY=0.5;entryDx=0;entryDy=0;" edge="1" parent="1" source="6odyf6oBOMub9okKzpVn-1" target="6odyf6oBOMub9okKzpVn-10">
          <mxGeometry width="50" height="50" relative="1" as="geometry">
            <mxPoint x="400" y="330" as="sourcePoint" />
            <mxPoint x="450" y="280" as="targetPoint" />
          </mxGeometry>
        </mxCell>
        <mxCell id="6odyf6oBOMub9okKzpVn-14" value="" style="endArrow=classic;html=1;rounded=0;strokeWidth=2;fontSize=18;exitX=1;exitY=0.5;exitDx=0;exitDy=0;entryX=0;entryY=0.5;entryDx=0;entryDy=0;" edge="1" parent="1" source="6odyf6oBOMub9okKzpVn-1" target="6odyf6oBOMub9okKzpVn-12">
          <mxGeometry width="50" height="50" relative="1" as="geometry">
            <mxPoint x="190" y="370" as="sourcePoint" />
            <mxPoint x="300" y="320" as="targetPoint" />
          </mxGeometry>
        </mxCell>
        <mxCell id="6odyf6oBOMub9okKzpVn-15" value="Community Members" style="shape=umlActor;verticalLabelPosition=bottom;verticalAlign=top;html=1;outlineConnect=0;fontSize=18;" vertex="1" parent="1">
          <mxGeometry x="385" y="460" width="30" height="60" as="geometry" />
        </mxCell>
        <mxCell id="6odyf6oBOMub9okKzpVn-17" value="" style="shape=umlActor;verticalLabelPosition=bottom;verticalAlign=top;html=1;outlineConnect=0;fontSize=18;" vertex="1" parent="1">
          <mxGeometry x="345" y="460" width="30" height="60" as="geometry" />
        </mxCell>
        <mxCell id="6odyf6oBOMub9okKzpVn-19" value="" style="shape=umlActor;verticalLabelPosition=bottom;verticalAlign=top;html=1;outlineConnect=0;fontSize=18;" vertex="1" parent="1">
          <mxGeometry x="425" y="460" width="30" height="60" as="geometry" />
        </mxCell>
        <mxCell id="6odyf6oBOMub9okKzpVn-22" value="&lt;span style=&quot;font-size: 18px;&quot;&gt;Encourage community to publish their research/projects/ideas based on Scroll&lt;/span&gt;" style="rounded=1;whiteSpace=wrap;html=1;fillColor=#f5f5f5;fontColor=#333333;strokeColor=#666666;" vertex="1" parent="1">
          <mxGeometry x="600" y="320" width="340" height="100" as="geometry" />
        </mxCell>
        <mxCell id="6odyf6oBOMub9okKzpVn-23" value="" style="endArrow=classic;html=1;rounded=0;strokeWidth=2;fontSize=18;exitX=1;exitY=0.5;exitDx=0;exitDy=0;entryX=0;entryY=0.5;entryDx=0;entryDy=0;" edge="1" parent="1" source="6odyf6oBOMub9okKzpVn-10" target="6odyf6oBOMub9okKzpVn-22">
          <mxGeometry width="50" height="50" relative="1" as="geometry">
            <mxPoint x="400" y="300" as="sourcePoint" />
            <mxPoint x="450" y="250" as="targetPoint" />
          </mxGeometry>
        </mxCell>
        <mxCell id="6odyf6oBOMub9okKzpVn-24" value="" style="endArrow=classic;html=1;rounded=0;strokeWidth=2;fontSize=18;exitX=1;exitY=0.5;exitDx=0;exitDy=0;entryX=0;entryY=0.5;entryDx=0;entryDy=0;" edge="1" parent="1" source="6odyf6oBOMub9okKzpVn-12" target="6odyf6oBOMub9okKzpVn-22">
          <mxGeometry width="50" height="50" relative="1" as="geometry">
            <mxPoint x="520" y="320" as="sourcePoint" />
            <mxPoint x="610" y="380" as="targetPoint" />
          </mxGeometry>
        </mxCell>
        <mxCell id="6odyf6oBOMub9okKzpVn-26" value="&lt;span style=&quot;font-size: 18px;&quot;&gt;Attract applications/developers join the Scroll ecosystem&lt;/span&gt;" style="rounded=1;whiteSpace=wrap;html=1;fillColor=#f8cecc;strokeColor=#b85450;" vertex="1" parent="1">
          <mxGeometry x="980" y="320" width="270" height="100" as="geometry" />
        </mxCell>
        <mxCell id="6odyf6oBOMub9okKzpVn-27" value="" style="shape=umlActor;verticalLabelPosition=bottom;verticalAlign=top;html=1;outlineConnect=0;fontSize=18;" vertex="1" parent="1">
          <mxGeometry x="990" y="440" width="30" height="60" as="geometry" />
        </mxCell>
        <mxCell id="6odyf6oBOMub9okKzpVn-28" value="" style="shape=umlActor;verticalLabelPosition=bottom;verticalAlign=top;html=1;outlineConnect=0;fontSize=18;" vertex="1" parent="1">
          <mxGeometry x="1030" y="440" width="30" height="60" as="geometry" />
        </mxCell>
        <mxCell id="6odyf6oBOMub9okKzpVn-29" value="" style="shape=umlActor;verticalLabelPosition=bottom;verticalAlign=top;html=1;outlineConnect=0;fontSize=18;" vertex="1" parent="1">
          <mxGeometry x="1070" y="440" width="30" height="60" as="geometry" />
        </mxCell>
        <mxCell id="6odyf6oBOMub9okKzpVn-31" value="" style="shape=umlActor;verticalLabelPosition=bottom;verticalAlign=top;html=1;outlineConnect=0;fontSize=18;" vertex="1" parent="1">
          <mxGeometry x="1110" y="440" width="30" height="60" as="geometry" />
        </mxCell>
        <mxCell id="6odyf6oBOMub9okKzpVn-32" value="" style="shape=umlActor;verticalLabelPosition=bottom;verticalAlign=top;html=1;outlineConnect=0;fontSize=18;" vertex="1" parent="1">
          <mxGeometry x="1150" y="440" width="30" height="60" as="geometry" />
        </mxCell>
        <mxCell id="6odyf6oBOMub9okKzpVn-33" value="" style="shape=umlActor;verticalLabelPosition=bottom;verticalAlign=top;html=1;outlineConnect=0;fontSize=18;" vertex="1" parent="1">
          <mxGeometry x="1190" y="440" width="30" height="60" as="geometry" />
        </mxCell>
        <mxCell id="6odyf6oBOMub9okKzpVn-35" value="" style="shape=umlActor;verticalLabelPosition=bottom;verticalAlign=top;html=1;outlineConnect=0;fontSize=18;" vertex="1" parent="1">
          <mxGeometry x="990" y="510" width="30" height="60" as="geometry" />
        </mxCell>
        <mxCell id="6odyf6oBOMub9okKzpVn-36" value="" style="shape=umlActor;verticalLabelPosition=bottom;verticalAlign=top;html=1;outlineConnect=0;fontSize=18;" vertex="1" parent="1">
          <mxGeometry x="1030" y="510" width="30" height="60" as="geometry" />
        </mxCell>
        <mxCell id="6odyf6oBOMub9okKzpVn-37" value="Scroll Ecosystem" style="shape=umlActor;verticalLabelPosition=bottom;verticalAlign=top;html=1;outlineConnect=0;fontSize=18;" vertex="1" parent="1">
          <mxGeometry x="1070" y="510" width="30" height="60" as="geometry" />
        </mxCell>
        <mxCell id="6odyf6oBOMub9okKzpVn-38" value="" style="shape=umlActor;verticalLabelPosition=bottom;verticalAlign=top;html=1;outlineConnect=0;fontSize=18;" vertex="1" parent="1">
          <mxGeometry x="1110" y="510" width="30" height="60" as="geometry" />
        </mxCell>
        <mxCell id="6odyf6oBOMub9okKzpVn-39" value="" style="shape=umlActor;verticalLabelPosition=bottom;verticalAlign=top;html=1;outlineConnect=0;fontSize=18;" vertex="1" parent="1">
          <mxGeometry x="1150" y="510" width="30" height="60" as="geometry" />
        </mxCell>
        <mxCell id="6odyf6oBOMub9okKzpVn-40" value="" style="shape=umlActor;verticalLabelPosition=bottom;verticalAlign=top;html=1;outlineConnect=0;fontSize=18;" vertex="1" parent="1">
          <mxGeometry x="1190" y="510" width="30" height="60" as="geometry" />
        </mxCell>
        <mxCell id="6odyf6oBOMub9okKzpVn-47" value="" style="shape=umlActor;verticalLabelPosition=bottom;verticalAlign=top;html=1;outlineConnect=0;fontSize=18;" vertex="1" parent="1">
          <mxGeometry x="560" y="650" width="30" height="60" as="geometry" />
        </mxCell>
        <mxCell id="6odyf6oBOMub9okKzpVn-48" value="" style="shape=umlActor;verticalLabelPosition=bottom;verticalAlign=top;html=1;outlineConnect=0;fontSize=18;" vertex="1" parent="1">
          <mxGeometry x="600" y="650" width="30" height="60" as="geometry" />
        </mxCell>
        <mxCell id="6odyf6oBOMub9okKzpVn-49" value="" style="shape=umlActor;verticalLabelPosition=bottom;verticalAlign=top;html=1;outlineConnect=0;fontSize=18;" vertex="1" parent="1">
          <mxGeometry x="640" y="650" width="30" height="60" as="geometry" />
        </mxCell>
        <mxCell id="6odyf6oBOMub9okKzpVn-50" value="" style="shape=umlActor;verticalLabelPosition=bottom;verticalAlign=top;html=1;outlineConnect=0;fontSize=18;" vertex="1" parent="1">
          <mxGeometry x="580" y="700" width="30" height="60" as="geometry" />
        </mxCell>
        <mxCell id="6odyf6oBOMub9okKzpVn-51" value="" style="shape=umlActor;verticalLabelPosition=bottom;verticalAlign=top;html=1;outlineConnect=0;fontSize=18;" vertex="1" parent="1">
          <mxGeometry x="620" y="700" width="30" height="60" as="geometry" />
        </mxCell>
        <mxCell id="6odyf6oBOMub9okKzpVn-52" value="" style="shape=umlActor;verticalLabelPosition=bottom;verticalAlign=top;html=1;outlineConnect=0;fontSize=18;" vertex="1" parent="1">
          <mxGeometry x="540" y="700" width="30" height="60" as="geometry" />
        </mxCell>
        <mxCell id="6odyf6oBOMub9okKzpVn-53" value="" style="shape=umlActor;verticalLabelPosition=bottom;verticalAlign=top;html=1;outlineConnect=0;fontSize=18;" vertex="1" parent="1">
          <mxGeometry x="660" y="700" width="30" height="60" as="geometry" />
        </mxCell>
        <mxCell id="6odyf6oBOMub9okKzpVn-54" value="&lt;span style=&quot;&quot;&gt;External Developers&lt;/span&gt;" style="text;html=1;strokeColor=none;fillColor=none;align=center;verticalAlign=middle;whiteSpace=wrap;rounded=0;fontSize=18;" vertex="1" parent="1">
          <mxGeometry x="520" y="760" width="190" height="40" as="geometry" />
        </mxCell>
        <mxCell id="6odyf6oBOMub9okKzpVn-55" value="" style="endArrow=classic;html=1;rounded=0;strokeWidth=2;fontSize=18;strokeColor=#FF6666;" edge="1" parent="1" source="6odyf6oBOMub9okKzpVn-19">
          <mxGeometry width="50" height="50" relative="1" as="geometry">
            <mxPoint x="660" y="670" as="sourcePoint" />
            <mxPoint x="980" y="490" as="targetPoint" />
          </mxGeometry>
        </mxCell>
        <mxCell id="6odyf6oBOMub9okKzpVn-56" value="" style="endArrow=classic;html=1;rounded=0;strokeWidth=2;fontSize=18;strokeColor=#FF6666;" edge="1" parent="1">
          <mxGeometry width="50" height="50" relative="1" as="geometry">
            <mxPoint x="680" y="690" as="sourcePoint" />
            <mxPoint x="980" y="510" as="targetPoint" />
          </mxGeometry>
        </mxCell>
        <mxCell id="6odyf6oBOMub9okKzpVn-57" value="&lt;font color=&quot;#ff6666&quot;&gt;Join Scroll Ecosystem&lt;/font&gt;" style="text;html=1;strokeColor=none;fillColor=none;align=center;verticalAlign=middle;whiteSpace=wrap;rounded=0;fontSize=18;" vertex="1" parent="1">
          <mxGeometry x="665" y="535" width="210" height="30" as="geometry" />
        </mxCell>
      </root>
    </mxGraphModel>
  </diagram>
</mxfile>
